<mxfile host="Electron" agent="Mozilla/5.0 (Windows NT 10.0; Win64; x64) AppleWebKit/537.36 (KHTML, like Gecko) draw.io/26.0.16 Chrome/132.0.6834.196 Electron/34.2.0 Safari/537.36" version="26.0.16">
  <diagram name="Page-1" id="nuQmZjlAjpzURm0X1TB3">
    <mxGraphModel dx="1050" dy="621" grid="0" gridSize="10" guides="1" tooltips="1" connect="1" arrows="1" fold="1" page="1" pageScale="1" pageWidth="1100" pageHeight="850" math="0" shadow="0">
      <root>
        <mxCell id="0" />
        <mxCell id="1" parent="0" />
        <mxCell id="0IfXszTP87YYn8tm4sb3-4" value="Tổng quan" style="shape=umlFrame;whiteSpace=wrap;html=1;pointerEvents=0;recursiveResize=0;container=1;collapsible=0;width=100;height=30;" parent="1" vertex="1">
          <mxGeometry x="260" y="70" width="610" height="490" as="geometry" />
        </mxCell>
        <mxCell id="0IfXszTP87YYn8tm4sb3-12" value="Quản lý&amp;nbsp;&lt;div&gt;tài khoản cá nhân&lt;/div&gt;" style="ellipse;whiteSpace=wrap;html=1;" parent="0IfXszTP87YYn8tm4sb3-4" vertex="1">
          <mxGeometry x="60" y="50" width="140" height="70" as="geometry" />
        </mxCell>
        <mxCell id="0IfXszTP87YYn8tm4sb3-13" value="Quản lý&amp;nbsp;&lt;div&gt;vé xem phim&lt;/div&gt;" style="ellipse;whiteSpace=wrap;html=1;fillColor=#fff2cc;strokeColor=#d6b656;" parent="0IfXszTP87YYn8tm4sb3-4" vertex="1">
          <mxGeometry x="70" y="140" width="120" height="50" as="geometry" />
        </mxCell>
        <mxCell id="0IfXszTP87YYn8tm4sb3-14" value="Tìm kiếm phim" style="ellipse;whiteSpace=wrap;html=1;" parent="0IfXszTP87YYn8tm4sb3-4" vertex="1">
          <mxGeometry x="90" y="220" width="120" height="50" as="geometry" />
        </mxCell>
        <mxCell id="0IfXszTP87YYn8tm4sb3-15" value="Xem thông tin phim" style="ellipse;whiteSpace=wrap;html=1;" parent="0IfXszTP87YYn8tm4sb3-4" vertex="1">
          <mxGeometry x="80" y="290" width="120" height="50" as="geometry" />
        </mxCell>
        <mxCell id="0IfXszTP87YYn8tm4sb3-16" value="Đánh giá phim" style="ellipse;whiteSpace=wrap;html=1;fillColor=#fff2cc;strokeColor=#d6b656;" parent="0IfXszTP87YYn8tm4sb3-4" vertex="1">
          <mxGeometry x="60" y="420" width="120" height="50" as="geometry" />
        </mxCell>
        <mxCell id="0IfXszTP87YYn8tm4sb3-18" value="&amp;lt;&amp;lt;extend&amp;gt;&amp;gt;" style="html=1;verticalAlign=bottom;labelBackgroundColor=none;endArrow=open;endFill=0;dashed=1;rounded=0;exitX=0.5;exitY=0;exitDx=0;exitDy=0;entryX=0.5;entryY=1;entryDx=0;entryDy=0;" parent="0IfXszTP87YYn8tm4sb3-4" source="0IfXszTP87YYn8tm4sb3-16" target="0IfXszTP87YYn8tm4sb3-15" edge="1">
          <mxGeometry width="160" relative="1" as="geometry">
            <mxPoint x="220" y="230" as="sourcePoint" />
            <mxPoint x="380" y="230" as="targetPoint" />
          </mxGeometry>
        </mxCell>
        <mxCell id="0IfXszTP87YYn8tm4sb3-27" value="Quản lý&amp;nbsp;&lt;div&gt;hệ thống chiếu phim&lt;/div&gt;" style="ellipse;whiteSpace=wrap;html=1;fillColor=#fff2cc;strokeColor=#d6b656;" parent="0IfXszTP87YYn8tm4sb3-4" vertex="1">
          <mxGeometry x="390" y="50" width="140" height="70" as="geometry" />
        </mxCell>
        <mxCell id="0IfXszTP87YYn8tm4sb3-28" value="Thống kê" style="ellipse;whiteSpace=wrap;html=1;" parent="0IfXszTP87YYn8tm4sb3-4" vertex="1">
          <mxGeometry x="420" y="180" width="110" height="50" as="geometry" />
        </mxCell>
        <mxCell id="0IfXszTP87YYn8tm4sb3-29" value="Quản lý nhân viên" style="ellipse;whiteSpace=wrap;html=1;fillColor=#fff2cc;strokeColor=#d6b656;" parent="0IfXszTP87YYn8tm4sb3-4" vertex="1">
          <mxGeometry x="410" y="280" width="120" height="60" as="geometry" />
        </mxCell>
        <mxCell id="0IfXszTP87YYn8tm4sb3-30" value="Quản lý đối tác" style="ellipse;whiteSpace=wrap;html=1;fillColor=#fff2cc;strokeColor=#d6b656;" parent="0IfXszTP87YYn8tm4sb3-4" vertex="1">
          <mxGeometry x="440" y="370" width="120" height="50" as="geometry" />
        </mxCell>
        <mxCell id="0IfXszTP87YYn8tm4sb3-5" value="Người dùng" style="shape=umlActor;verticalLabelPosition=bottom;verticalAlign=top;html=1;" parent="1" vertex="1">
          <mxGeometry x="120" y="160" width="30" height="60" as="geometry" />
        </mxCell>
        <mxCell id="0IfXszTP87YYn8tm4sb3-8" value="Nhân viên" style="shape=umlActor;verticalLabelPosition=bottom;verticalAlign=top;html=1;" parent="1" vertex="1">
          <mxGeometry x="50" y="300" width="30" height="60" as="geometry" />
        </mxCell>
        <mxCell id="0IfXszTP87YYn8tm4sb3-9" value="Khách hàng" style="shape=umlActor;verticalLabelPosition=bottom;verticalAlign=top;html=1;" parent="1" vertex="1">
          <mxGeometry x="160" y="420" width="30" height="60" as="geometry" />
        </mxCell>
        <mxCell id="0IfXszTP87YYn8tm4sb3-10" value="" style="endArrow=block;dashed=1;endFill=0;endSize=12;html=1;rounded=0;" parent="1" edge="1">
          <mxGeometry width="160" relative="1" as="geometry">
            <mxPoint x="80" y="300" as="sourcePoint" />
            <mxPoint x="130" y="240" as="targetPoint" />
          </mxGeometry>
        </mxCell>
        <mxCell id="0IfXszTP87YYn8tm4sb3-11" value="" style="endArrow=block;dashed=1;endFill=0;endSize=12;html=1;rounded=0;" parent="1" edge="1">
          <mxGeometry width="160" relative="1" as="geometry">
            <mxPoint x="170" y="410" as="sourcePoint" />
            <mxPoint x="140" y="240" as="targetPoint" />
          </mxGeometry>
        </mxCell>
        <mxCell id="0IfXszTP87YYn8tm4sb3-21" value="" style="endArrow=none;html=1;rounded=0;entryX=0;entryY=0.5;entryDx=0;entryDy=0;" parent="1" target="0IfXszTP87YYn8tm4sb3-12" edge="1">
          <mxGeometry width="50" height="50" relative="1" as="geometry">
            <mxPoint x="160" y="200" as="sourcePoint" />
            <mxPoint x="550" y="270" as="targetPoint" />
          </mxGeometry>
        </mxCell>
        <mxCell id="0IfXszTP87YYn8tm4sb3-22" value="" style="endArrow=none;html=1;rounded=0;entryX=0;entryY=0.5;entryDx=0;entryDy=0;exitX=1;exitY=0.3333333333333333;exitDx=0;exitDy=0;exitPerimeter=0;" parent="1" source="0IfXszTP87YYn8tm4sb3-9" target="0IfXszTP87YYn8tm4sb3-13" edge="1">
          <mxGeometry width="50" height="50" relative="1" as="geometry">
            <mxPoint x="200" y="420" as="sourcePoint" />
            <mxPoint x="290" y="165" as="targetPoint" />
          </mxGeometry>
        </mxCell>
        <mxCell id="0IfXszTP87YYn8tm4sb3-23" value="" style="endArrow=none;html=1;rounded=0;entryX=0;entryY=0.5;entryDx=0;entryDy=0;exitX=1;exitY=0.3333333333333333;exitDx=0;exitDy=0;exitPerimeter=0;" parent="1" source="0IfXszTP87YYn8tm4sb3-9" target="0IfXszTP87YYn8tm4sb3-14" edge="1">
          <mxGeometry width="50" height="50" relative="1" as="geometry">
            <mxPoint x="200" y="420" as="sourcePoint" />
            <mxPoint x="300" y="245" as="targetPoint" />
          </mxGeometry>
        </mxCell>
        <mxCell id="0IfXszTP87YYn8tm4sb3-24" value="" style="endArrow=none;html=1;rounded=0;entryX=0;entryY=0.5;entryDx=0;entryDy=0;" parent="1" target="0IfXszTP87YYn8tm4sb3-15" edge="1">
          <mxGeometry width="50" height="50" relative="1" as="geometry">
            <mxPoint x="190" y="440" as="sourcePoint" />
            <mxPoint x="310" y="255" as="targetPoint" />
          </mxGeometry>
        </mxCell>
        <mxCell id="0IfXszTP87YYn8tm4sb3-25" value="" style="endArrow=none;html=1;rounded=0;entryX=0;entryY=0.5;entryDx=0;entryDy=0;exitX=1;exitY=0.3333333333333333;exitDx=0;exitDy=0;exitPerimeter=0;" parent="1" source="0IfXszTP87YYn8tm4sb3-9" target="0IfXszTP87YYn8tm4sb3-16" edge="1">
          <mxGeometry width="50" height="50" relative="1" as="geometry">
            <mxPoint x="200" y="420" as="sourcePoint" />
            <mxPoint x="320" y="265" as="targetPoint" />
          </mxGeometry>
        </mxCell>
        <mxCell id="0IfXszTP87YYn8tm4sb3-31" value="Quản trị viên" style="shape=umlActor;verticalLabelPosition=bottom;verticalAlign=top;html=1;" parent="1" vertex="1">
          <mxGeometry x="950" y="200" width="30" height="60" as="geometry" />
        </mxCell>
        <mxCell id="0IfXszTP87YYn8tm4sb3-32" value="" style="endArrow=none;html=1;rounded=0;entryX=1;entryY=0.5;entryDx=0;entryDy=0;exitX=0;exitY=0.3333333333333333;exitDx=0;exitDy=0;exitPerimeter=0;" parent="1" source="0IfXszTP87YYn8tm4sb3-31" target="0IfXszTP87YYn8tm4sb3-27" edge="1">
          <mxGeometry width="50" height="50" relative="1" as="geometry">
            <mxPoint x="940" y="220" as="sourcePoint" />
            <mxPoint x="330" y="165" as="targetPoint" />
          </mxGeometry>
        </mxCell>
        <mxCell id="0IfXszTP87YYn8tm4sb3-33" value="" style="endArrow=none;html=1;rounded=0;entryX=1;entryY=0.5;entryDx=0;entryDy=0;" parent="1" target="0IfXszTP87YYn8tm4sb3-28" edge="1">
          <mxGeometry width="50" height="50" relative="1" as="geometry">
            <mxPoint x="950" y="220" as="sourcePoint" />
            <mxPoint x="800" y="165" as="targetPoint" />
          </mxGeometry>
        </mxCell>
        <mxCell id="0IfXszTP87YYn8tm4sb3-34" value="" style="endArrow=none;html=1;rounded=0;entryX=1;entryY=0.5;entryDx=0;entryDy=0;exitX=0;exitY=0.3333333333333333;exitDx=0;exitDy=0;exitPerimeter=0;" parent="1" source="0IfXszTP87YYn8tm4sb3-31" target="0IfXszTP87YYn8tm4sb3-29" edge="1">
          <mxGeometry width="50" height="50" relative="1" as="geometry">
            <mxPoint x="960" y="230" as="sourcePoint" />
            <mxPoint x="800" y="285" as="targetPoint" />
          </mxGeometry>
        </mxCell>
        <mxCell id="0IfXszTP87YYn8tm4sb3-35" value="" style="endArrow=none;html=1;rounded=0;entryX=1;entryY=0.5;entryDx=0;entryDy=0;exitX=0;exitY=0.3333333333333333;exitDx=0;exitDy=0;exitPerimeter=0;" parent="1" source="0IfXszTP87YYn8tm4sb3-31" target="0IfXszTP87YYn8tm4sb3-30" edge="1">
          <mxGeometry width="50" height="50" relative="1" as="geometry">
            <mxPoint x="970" y="240" as="sourcePoint" />
            <mxPoint x="810" y="295" as="targetPoint" />
          </mxGeometry>
        </mxCell>
      </root>
    </mxGraphModel>
  </diagram>
</mxfile>
